<svg xmlns="http://www.w3.org/2000/svg" width="32.952" height="32.952" viewBox="0 0 32.952 32.952"><defs><style>.a{fill:#ff5876;}.b{fill:#e6485d;}.c{fill:#e4eef9;}.d{fill:#d5e0f2;}.e{fill:#405b6c;}.f{fill:#86dcff;}.g{fill:#2d4456;}</style></defs><g transform="translate(0)"><path class="a" d="M32.952,16.476q0-.3-.011-.6a16.476,16.476,0,0,0-32.931,0q-.011.3-.011.6c0,9.1,8.463,15.878,16.476,15.878C24.634,32.354,32.952,25.576,32.952,16.476Z" transform="translate(0)"/><path class="b" d="M16.476,262.587A16.476,16.476,0,0,1,.012,246.709c-.007.2-.012.4-.012.6a16.476,16.476,0,0,0,32.952,0c0-.2,0-.4-.012-.6A16.476,16.476,0,0,1,16.476,262.587Z" transform="translate(0 -230.831)"/><path class="c" d="M70.046,55.532a13.749,13.749,0,0,0-27.471,0c-.008.2,0,13.472,13.736,13.472S70.055,55.731,70.046,55.532Z" transform="translate(-39.835 -39.654)"/><path class="d" d="M56.13,259.859A13.748,13.748,0,0,1,42.4,246.709c-.008.2-.014.4-.014.6a13.748,13.748,0,0,0,27.5,0c0-.2-.005-.4-.014-.6A13.748,13.748,0,0,1,56.13,259.859Z" transform="translate(-39.654 -230.831)"/><path class="e" d="M279.112,176.877a1,1,0,0,0-1.409.01l-2.338,2.371.235,1.129,1.092.364,2.43-2.464A1,1,0,0,0,279.112,176.877Z" transform="translate(-257.642 -165.224)"/><path class="e" d="M132.858,147.069l-5.3-4.726a1,1,0,0,0-1.326,1.488l5.408,4.819,1.127-.376Z" transform="translate(-117.792 -132.946)"/><path class="f" d="M266.634,264.273a.5.5,0,0,1-.32-.117l-6.312-5.3a.5.5,0,1,1,.641-.763l6.312,5.3a.5.5,0,0,1-.321.88Z" transform="translate(-243.102 -241.371)"/><path class="g" d="M215.1,221.028l.931.829,1.2-.406-.065-1.256-.839-.748A2.749,2.749,0,0,0,215.1,221.028Z" transform="translate(-201.259 -205.323)"/><path class="g" d="M263.86,218.038l-.791.8v1.575h1.246l.872-.884A2.752,2.752,0,0,0,263.86,218.038Z" transform="translate(-246.138 -204.005)"/><path class="a" d="M234.152,230.644a1.7,1.7,0,0,0-3.19,0,1.6,1.6,0,1,0,3.19,0Z" transform="translate(-216.08 -214.766)"/><path class="b" d="M231.242,247.815a1.7,1.7,0,0,1-1.595-1.105,1.7,1.7,0,1,0,3.189,0A1.7,1.7,0,0,1,231.242,247.815Z" transform="translate(-214.766 -230.832)"/></g><g transform="translate(3.977 3.977)"><path class="e" d="M249.241,63.835V62.288a.5.5,0,1,0-1,0v1.546a.5.5,0,0,0,1,0Z" transform="translate(-236.243 -61.789)"/><path class="e" d="M248.243,411.169v1.546a.5.5,0,1,0,1,0v-1.546a.5.5,0,0,0-1,0Z" transform="translate(-236.243 -388.216)"/><path class="e" d="M412.716,249.241a.5.5,0,1,0,0-1h-1.546a.5.5,0,0,0,0,1Z" transform="translate(-388.216 -236.243)"/><path class="e" d="M62.288,248.243a.5.5,0,1,0,0,1h1.546a.5.5,0,0,0,0-1Z" transform="translate(-61.789 -236.243)"/></g></svg>