<svg xmlns="http://www.w3.org/2000/svg"><symbol id="sprite-ac" viewBox="0 0 7.567 16.5"><title>ac</title><g fill="#707070"><path data-name="Path 3933" d="M73.8 9.711v-7.42a2.292 2.292 0 00-4.583 0v7.42a3.783 3.783 0 104.583 0zm-2.292 5.8a2.791 2.791 0 01-1.526-5.13.5.5 0 00.224-.414V2.291a1.3 1.3 0 012.6 0v7.676a.494.494 0 00.224.414 2.791 2.791 0 01-1.526 5.13z" transform="translate(-67.73)"/><path data-name="Path 3934" d="M72.004 11.148V4.612a.495.495 0 00-.989 0v6.537a1.644 1.644 0 10.989 0z" transform="translate(-67.73)"/></g></symbol><symbol id="sprite-american-express" viewBox="0 0 25.164 16.308"><title>american-express</title><path data-name="Path 1973" d="M10.8 17.231H8.9v-2.392h1.9v.5H9.467v.431h1.306v.49H9.467v.478H10.8zm-4.254 0l-.83-1.874v1.874H4.558l-.22-.533H3.149l-.222.533h-.621l1.023-2.391h.848l.973 2.26v-2.26h.933l.748 1.622.687-1.622h.953v2.391h-.586v-1.873l-.829 1.873zM4.131 16.2l-.391-.953-.389.953zm9.244 3.544c0 .664-.5.8-.995.8h-.713v.8h-1.11l-.7-.792-.732.792H6.858v-2.389h2.3l.7.783.727-.783h1.826c.456 0 .965.126.965.788zm-3.89.4l-.625-.7H7.428v.435h1.255v.488H7.428v.476h1.4zm1.613-.935l-.878.943.878.975zm1.664.532c0-.209-.143-.294-.349-.294h-.745v.609h.738c.22.003.356-.106.356-.313zm-.99-2.512H11.2v-2.39h1.314a1.348 1.348 0 01.692.115.559.559 0 01.289.53.672.672 0 01-.4.637.664.664 0 01.283.2.684.684 0 01.095.438v.47h-.577v-.3a.718.718 0 00-.09-.466.56.56 0 00-.417-.1h-.613v.869zm0-1.362h.695a.533.533 0 00.283-.049.246.246 0 00.118-.227.219.219 0 00-.12-.211.592.592 0 00-.271-.043h-.7v.531zm2.638-1.027h-.583v2.391h.583zm.59 2.126a1.2 1.2 0 01-.307-.913 1.275 1.275 0 01.307-.935 1.159 1.159 0 01.868-.278h.553v.512h-.541a.55.55 0 00-.44.142.788.788 0 00-.164.542.822.822 0 00.157.561.551.551 0 00.4.123h.256l.807-1.88h.856l.968 2.262V14.84h.87l1.005 1.665V14.84h.585v2.391h-.809l-1.084-1.795v1.795h-1.168L17.9 16.7h-1.191l-.215.533h-.669a1.2 1.2 0 01-.825-.267zm1.917-.767h.783l-.4-.953zm-1.2-.423a.58.58 0 00-.045.259.607.607 0 00.045.278.452.452 0 00.112.012l.248-.579h-.2c-.133.001-.146.015-.163.03zm9.45-5.19V25.6a.648.648 0 01-.648.648H.648A.648.648 0 010 25.6V10.587a.648.648 0 01.648-.648h23.868a.648.648 0 01.648.648zm-18.616 7.04h.5a.394.394 0 00.361-.235l.076-.169v.01a.394.394 0 00.395.394h.587a.39.39 0 00.213-.071.388.388 0 00.213.071H10.8a.381.381 0 00.2-.061.386.386 0 00.2.061h.572a.4.4 0 00.395-.395v-.475h.329v.474a.4.4 0 00.4.392h.577a.38.38 0 00.177-.048.39.39 0 00.179.048h.584a.389.389 0 00.38-.318 1.659 1.659 0 001.035.318h.669a.393.393 0 00.364-.247l.117-.286h.659l.121.29a.4.4 0 00.364.243h1.163a.4.4 0 00.395-.395v-.377l.351.581a.4.4 0 00.339.191h.809a.4.4 0 00.395-.395v-2.388a.4.4 0 00-.395-.395h-.585a.4.4 0 00-.4.395v.247l-.272-.45a.393.393 0 00-.338-.191h-.87a.4.4 0 00-.4.395v.335l-.21-.491a.4.4 0 00-.363-.239h-.856a.392.392 0 00-.236.078.391.391 0 00-.236-.078h-.553a1.572 1.572 0 00-1.073.335.389.389 0 00-.383-.335h-.583a.393.393 0 00-.352.222c-.025-.018-.044-.039-.071-.055a1.679 1.679 0 00-.89-.167H11.2a.385.385 0 00-.2.061.381.381 0 00-.2-.061H8.9a.384.384 0 00-.213.071.387.387 0 00-.213-.071h-.956a.394.394 0 00-.363.241l-.339.8-.374-.812a.4.4 0 00-.359-.229H5.15a.4.4 0 00-.395.395v.344l-.214-.5a.4.4 0 00-.363-.239H3.33a.4.4 0 00-.363.239l-1.023 2.391a.394.394 0 00.363.55h.621a.394.394 0 00.364-.243l.121-.29h.662l.119.289a.4.4 0 00.365.245h1.162a.4.4 0 00.395-.395v-.011l.075.17a.394.394 0 00.36.236zm16.7 2.966a1.051 1.051 0 00-.285-.784l-.012-.012a.394.394 0 00.18-.332v-.509a.4.4 0 00-.394-.4H21.6a1.263 1.263 0 00-.821.264.392.392 0 00-.369-.264h-1.149a1.317 1.317 0 00-.752.206.391.391 0 00-.34-.206h-1.907a.39.39 0 00-.348.218c-.028-.019-.047-.041-.077-.059a1.779 1.779 0 00-.874-.159h-1.32a.39.39 0 00-.349.22 1.574 1.574 0 00-.882-.22h-1.825a.394.394 0 00-.29.126l-.433.467-.415-.462a.391.391 0 00-.294-.131h-2.3a.4.4 0 00-.395.4v2.391a.4.4 0 00.395.4h2.267a.4.4 0 00.29-.127l.436-.472.414.466a.4.4 0 00.3.132h1.111a.4.4 0 00.4-.395v-.408h.318a1.671 1.671 0 00.868-.2v.608a.4.4 0 00.4.395h.574a.4.4 0 00.395-.395v-.479h.332v.476a.4.4 0 00.4.395h.573a.388.388 0 00.174-.045.378.378 0 00.175.045h1.888a.387.387 0 00.171-.043.389.389 0 00.172.043h1.113a1.458 1.458 0 00.859-.24.4.4 0 00.363.24h1.113c.809-.001 1.292-.431 1.292-1.15zm-3.553-.7l-.307-.009a.662.662 0 01-.223-.027.2.2 0 01-.038-.351.389.389 0 01.229-.043h1.048v-.509h-1.144c-.6 0-.817.364-.817.712 0 .756.67.722 1.2.74a.3.3 0 01.2.053.2.2 0 01.07.158.211.211 0 01-.067.156.332.332 0 01-.233.059h-1.102v.513h1.113c.576 0 .9-.24.9-.755a.666.666 0 00-.172-.507.936.936 0 00-.655-.189zm-4.159.342a.616.616 0 01.279.2.687.687 0 01.095.436v.474h-.573v-.3c0-.144.014-.357-.092-.468a.555.555 0 00-.419-.106h-.61v.873h-.574v-2.388h1.319a1.42 1.42 0 01.688.112.561.561 0 01.293.531.672.672 0 01-.404.637zm-.227-.527a.228.228 0 00-.118-.215.566.566 0 00-.273-.043h-.7v.537h.695a.549.549 0 00.283-.049.259.259 0 00.115-.229zm.949 1.638h1.909v-.5h-1.338v-.475h1.305v-.488h-1.306v-.435h1.339v-.494h-1.907zm5.771-1.453l-.307-.009a.667.667 0 01-.223-.027.2.2 0 01-.038-.351.392.392 0 01.229-.043h1.048v-.509H21.6c-.6 0-.817.364-.817.712 0 .756.67.722 1.2.74a.3.3 0 01.2.053.206.206 0 01.069.158.214.214 0 01-.066.156.334.334 0 01-.233.059H20.85v.513h1.113c.576 0 .9-.24.9-.755a.662.662 0 00-.172-.507.933.933 0 00-.657-.189z" fill="#fff" transform="translate(0 -9.939)"/></symbol><symbol id="sprite-armchair-furniture" viewBox="0 0 29.597 27.238"><title>armchair-furniture</title><path data-name="7068951_armchair_furniture_lobby_interior_seat_icon" d="M26.435 11.545V5.238A5.246 5.246 0 0021.197 0h-12.8a5.246 5.246 0 00-5.238 5.238v6.307A3.659 3.659 0 00-.003 15.16v11.573a.505.505 0 00.505.505h28.587a.505.505 0 00.505-.505V15.16a3.659 3.659 0 00-3.159-3.615zM8.4 1.009h12.8a4.235 4.235 0 014.229 4.229v6.307a3.659 3.659 0 00-3.161 3.615v2.093H7.332V15.16a3.659 3.659 0 00-3.161-3.615V5.238A4.235 4.235 0 018.4 1.009zM7.331 18.261h14.934v2.371H7.332zm-6.323-3.1a2.658 2.658 0 115.315 0v11.065H1.008zm6.323 6.479h14.934v4.59H7.332zm21.257 4.59h-5.315V15.164a2.658 2.658 0 115.315 0z" fill="#021a70"/></symbol><symbol id="sprite-automatic-gear-self" viewBox="0 0 12.207 15.136"><title>automatic-gear-self</title><path data-name="Path 3932" d="M-109.526-161.788h-4.638v-.489h.382l1.209-2.015a2.538 2.538 0 00-2.176-3.844h-.294a2.539 2.539 0 00-2.177 3.844l1.209 2.015h.382v.488h-4.639a.733.733 0 00-.732.733v7.32a.733.733 0 00.732.732h10.742a.733.733 0 00.732-.732v-7.32a.733.733 0 00-.732-.732zm-4.15 8.3h-.977v-2.441h1.465v-1.465h.977v-1.953h-1.953v-.977h3.906v2.441h-.977v1.465h-.977v1.465h-1.464zm.976-12.11a2.045 2.045 0 01-.061.483 2.2 2.2 0 01-1.4-2.045v-.4a2.053 2.053 0 011.461 1.962zm-2.93-1.964v.4a2.2 2.2 0 01-1.4 2.045 2.032 2.032 0 011.4-2.447zm-1.17 3.019c-.022-.037-.039-.077-.059-.115a2.688 2.688 0 001.72-2.5v-.485h.494v.483a2.687 2.687 0 001.72 2.5c-.02.038-.036.078-.059.115l-1.074 1.78h-1.677zm2.149 2.266v2.93h-.488v-2.93zm-.977 2.93h-.977v-.977h.977zm-4.884 5.611v-7.32a.244.244 0 01.244-.244h4.639v.488h-1.465v1.953h4.394v.977h-.977v1.465h-1.464v2.93h-5.127a.244.244 0 01-.244-.249zm11.23 0a.244.244 0 01-.244.244h-3.662v-.977h1.465v-1.46h.977v-1.465h.977v-3.418h-4.395v-.488h4.639a.244.244 0 01.244.244z" fill="#707070" transform="translate(121 168.136)"/></symbol><symbol id="sprite-baggage" viewBox="0 0 22.938 27.059"><title>baggage</title><defs><style>.a{fill:#fff}</style></defs><path class="a" d="M20.587 25.567h1.342v.6h-1.342zM12.176 1.686h1.006v.445a.564.564 0 00.564.564h3.585a.564.564 0 00.564-.564v-.445h1.006v3.353h.676V1.347a.338.338 0 00-.338-.338h-1.344V.564A.564.564 0 0017.331 0h-3.585a.564.564 0 00-.564.564v.445h-1.345a.338.338 0 00-.338.338v3.691h.676zM.723 23.35h4.349v-.848a.338.338 0 01.338-.338h2.4a.338.338 0 01.338.338v.849h4.349a.751.751 0 00.723-.774v-4.73a.751.751 0 00-.723-.774H.723a.751.751 0 00-.723.774v4.729a.751.751 0 00.723.774zm12.501 2.935v-2.467a1.355 1.355 0 01-.723.209H8.152v.56a1.54 1.54 0 11-3.08 0v-.56H.723A1.354 1.354 0 010 23.818v2.467a.751.751 0 00.723.774h11.778a.751.751 0 00.723-.774z"/><path class="a" d="M6.612 25.451a.865.865 0 00.864-.864v-1.748H5.749v1.748a.865.865 0 00.863.864zm4.89-17.544h8.073a.335.335 0 01.335.335v2.691a.335.335 0 01-.335.335h-8.073a.335.335 0 01-.335-.335V8.242a.335.335 0 01.335-.335z"/><path class="a" d="M21.93 5.379H9.147A1.008 1.008 0 008.14 6.386v7.824h.116a1.625 1.625 0 011.6 1.648v.533h.638v-1.6a1.686 1.686 0 011.684-1.684h6.728a1.686 1.686 0 011.684 1.684v10.09h1.344a1.008 1.008 0 001.003-1.002V6.391a1.008 1.008 0 00-1.007-1.007zm-1.344 5.548a1.012 1.012 0 01-1.011 1.011h-8.073a1.012 1.012 0 01-1.011-1.011V8.236a1.012 1.012 0 011.011-1.011h8.073a1.012 1.012 0 011.011 1.011z"/><path class="a" d="M18.906 13.793h-6.728a1.008 1.008 0 00-1.007 1.007v1.6h1.335a1.427 1.427 0 011.4 1.451v7.043h6v-10.09a1.008 1.008 0 00-1.007-1.007zm-14.662 2.07a.751.751 0 01.723-.774h3.289a.751.751 0 01.723.774v.872h.676v-.872a1.427 1.427 0 00-1.4-1.451H4.966a1.427 1.427 0 00-1.4 1.451v.872h.676z"/></symbol><symbol id="sprite-briefcase-travel" viewBox="0 0 16.991 16.192"><title>briefcase-travel</title><g data-name="Group 4677"><g data-name="Group 4676"><path data-name="Path 3929" d="M13.193.608h-.4v1h-1.2v-1h-8v1H2.4v-1H2A3.577 3.577 0 010 0v4.206h15.192V0a3.577 3.577 0 01-1.999.608z" fill="none" stroke="#707070" transform="translate(.9 11.486)"/></g></g><g data-name="Group 4679"><g data-name="Group 4678"><path data-name="Path 3930" d="M0 0v4.6A2.4 2.4 0 002.4 7h.4V6H4v1h8V6h1.2v1h.4A2.4 2.4 0 0016 4.6V0zm9.995 4.6H6V2.2h4z" fill="none" stroke="#707070" transform="translate(.5 3.898)"/></g></g><g data-name="Group 4681"><g data-name="Group 4680"><path data-name="Path 3931" d="M2.889 0A3 3 0 000 2.2h1.278a1.8 1.8 0 013.222 0h1.278A3 3 0 002.889 0z" fill="none" stroke="#707070" transform="translate(5.606 .5)"/></g></g></symbol><symbol id="sprite-calendar" viewBox="0 0 14.784 14.998"><title>calendar</title><defs><style>.a{fill:#153949}</style></defs><path class="a" d="M11.065 3.208a1.052 1.052 0 001.054-1.052v-1.1a1.054 1.054 0 10-2.108 0v1.1a1.051 1.051 0 001.054 1.052z"/><path class="a" d="M14.768 1.823h-2.094v.531a1.584 1.584 0 01-3.167 0v-.531H5.281v.531a1.584 1.584 0 01-3.168 0v-.531L0 1.797v13.2h14.784zm-1.04 12.124H1.057V5.514h12.672v8.434z"/><path class="a" d="M3.688 3.208a1.052 1.052 0 001.055-1.053v-1.1a1.054 1.054 0 10-2.108 0v1.1a1.05 1.05 0 001.053 1.053zm1.587 3.413h1.686v1.488H5.275zm2.686 0h1.688v1.488H7.961zm2.492 0h1.686v1.488h-1.686zM5.275 9.056h1.686v1.487H5.275zm2.686 0h1.688v1.487H7.961zm2.492 0h1.686v1.487h-1.686zm-5.178 2.455h1.686v1.487H5.275zM2.637 9.056h1.685v1.487H2.637zm0 2.455h1.685v1.487H2.637zm5.324 0h1.688v1.487H7.961zm2.492 0h1.686v1.487h-1.686z"/></symbol><symbol id="sprite-car-rental" viewBox="0 0 31.392 20.548"><title>car-rental</title><path d="M29.447 6.56a.937.937 0 00-.064-.072l-1.1-1.062c.912-.207 1.895-.971 1.895-1.756 0-.914-1.268-1.238-2.35-1.238-1.131 0-1.263.775-1.276 1.323L23.713 1.02A4.006 4.006 0 0021.225 0H10.167A4.007 4.007 0 007.68 1.02L4.842 3.756c-.015-.547-.142-1.319-1.276-1.319-1.083 0-2.351.324-2.351 1.238 0 .784.983 1.549 1.9 1.756l-1.1 1.062c-.025.024-.042.047-.064.072A6.162 6.162 0 000 10.786v4.023a3.67 3.67 0 001.007 2.523v1.56a1.682 1.682 0 001.7 1.656h2.062a1.681 1.681 0 001.7-1.656v-.4h18.452v.4a1.681 1.681 0 001.7 1.656h2.059a1.681 1.681 0 001.7-1.656v-1.56a3.667 3.667 0 001.007-2.523v-4.023a6.155 6.155 0 00-1.94-4.226zM8.722 2.237a2.838 2.838 0 011.445-.585h11.06a2.838 2.838 0 011.445.585l3.722 3.607H5zm-7.445 7.94a1.764 1.764 0 011.732-1.795c.957 0 4.083 1.835 4.083 2.826s-3.126.761-4.083.761a1.762 1.762 0 01-1.732-1.792zm5.2 6.552H3.86a3.722 3.722 0 01-1.2-.579 1.7 1.7 0 01-.324-.329 1.289 1.289 0 01-.182-.333 1.514 1.514 0 01.259-1.32h3.339l2.227 2.559zm14.028 0h-9.612a1.815 1.815 0 01-1.814-1.814h13.235A1.814 1.814 0 0120.5 16.73zm.422-3.052H10.472c-1.089 0-1.973-1.343-1.973-3h14.4c-.004 1.66-.888 3.001-1.977 3.001zm8.321 1.814a1.3 1.3 0 01-.183.332 1.662 1.662 0 01-.324.329 3.689 3.689 0 01-1.2.579h-4.128l2.228-2.556h3.34a1.51 1.51 0 01.261 1.318zm-.859-3.524c-.956 0-4.082.228-4.082-.761s3.126-2.826 4.082-2.826a1.794 1.794 0 010 3.587z" fill="#fff"/></symbol><symbol id="sprite-car" viewBox="0 0 148.714 68.065"><title>car</title><defs><style>.a{fill:#053984}</style></defs><path class="a" d="M12.393 0a12.393 12.393 0 1012.393 12.393A12.407 12.407 0 0012.393 0zm0 19.829a7.436 7.436 0 117.436-7.436 7.445 7.445 0 01-7.436 7.436z" transform="translate(19.828 43.279)"/><path class="a" d="M146.236 43.279V28.407a2.479 2.479 0 00-1.7-2.352l-13.984-4.662c-5.267-8.92-12.507-17.409-28.506-20.213l-.089-.015C72.41-2.92 50.227 3.745 35.985 20.981c-10.6.154-21.422 2.37-27.787 6.444a12.134 12.134 0 00-5.436 9.7l-.288 6.154A2.479 2.479 0 000 45.757v9.91a2.479 2.479 0 002.478 2.478h9.914a2.5 2.5 0 002.478-2.506v-.04a17.35 17.35 0 0134.7.067 2.254 2.254 0 002.478 2.478h44.616a2.5 2.5 0 002.478-2.506v-.04a17.35 17.35 0 0134.7.067 2.254 2.254 0 002.478 2.478h9.914a2.479 2.479 0 002.478-2.478v-9.908a2.478 2.478 0 00-2.476-2.478zM79.315 19.732a1.24 1.24 0 01-1.239 1.239H45.752a1.247 1.247 0 01-.821-2.179c8.6-7.84 19.539-12.324 33.017-13.516a1.264 1.264 0 011.366 1.249zm29.778.012a1.241 1.241 0 01-1.239 1.227H85.511a1.24 1.24 0 01-1.239-1.239V6.199A1.242 1.242 0 0185.5 4.947a113.985 113.985 0 0115.732 1.123 41.753 41.753 0 017.153 1.891 1.241 1.241 0 01.8 1.185zm12.936 1.227h-6.739a1.239 1.239 0 01-1.239-1.252l.064-6.717a1.249 1.249 0 012-.974 32.773 32.773 0 016.893 6.938 1.246 1.246 0 01-.98 2.001z"/><path class="a" d="M12.393 0a12.393 12.393 0 1012.393 12.393A12.407 12.407 0 0012.393 0zm0 19.829a7.436 7.436 0 117.436-7.436 7.445 7.445 0 01-7.436 7.436z" transform="translate(104.1 43.279)"/></symbol><symbol id="sprite-champagne" viewBox="0 0 13.973 18.631"><title>champagne</title><defs><style>.a{fill:#001a70}</style></defs><path class="a" d="M4.959 7.319a.29.29 0 00-.1-.185 2.808 2.808 0 01-.271-1.055l-.208-3.75a.583.583 0 00.566-.581V.582A.583.583 0 004.367 0H2.038a.583.583 0 00-.582.582v1.165a.583.583 0 00.566.581l-.208 3.75a2.808 2.808 0 01-.271 1.055.291.291 0 00-.1.185 2.811 2.811 0 01-.452.591 3.371 3.371 0 00-.994 2.4v8.031a.291.291 0 00.291.291H6.11a.291.291 0 00.291-.291v-8.031a3.371 3.371 0 00-.994-2.4 2.814 2.814 0 01-.452-.591zM2.6 2.329h1.2l.21 3.782a3.391 3.391 0 00.306 1.231 1.456 1.456 0 01-2.228 0 3.39 3.39 0 00.306-1.231zM2.038.582h2.329v1.165H2.038zm-.632 7.739a3.4 3.4 0 00.38-.453 2.036 2.036 0 002.834 0 3.4 3.4 0 00.38.453 2.791 2.791 0 01.82 1.867H.585a2.79 2.79 0 01.821-1.866zM.583 10.77h5.24v5.24H.583zm0 7.278v-1.455h5.24v1.456z"/><path class="a" d="M3.202 11.935a1.164 1.164 0 101.164 1.164 1.166 1.166 0 00-1.164-1.164zm0 1.747a.582.582 0 11.582-.582.583.583 0 01-.582.582zm10.48-7.86H9.024a.291.291 0 00-.291.291v3.493a2.623 2.623 0 002.329 2.6v4.674h-.582a1.457 1.457 0 00-1.456 1.456.291.291 0 00.291.291h4.076a.291.291 0 00.291-.291 1.457 1.457 0 00-1.456-1.456h-.582v-4.674a2.623 2.623 0 002.329-2.6V6.113a.291.291 0 00-.291-.291zm-.632 12.227H9.656a.875.875 0 01.823-.582h1.747a.875.875 0 01.824.582zm.341-11.644v2.62H9.315v-2.62zm-2.038 5.24a2.04 2.04 0 01-2.038-2.038h4.076a2.04 2.04 0 01-2.038 2.037z"/></symbol><symbol id="sprite-clock" viewBox="0 0 41.073 41.073"><title>clock</title><defs><style>.a{fill:#ff5876}.b{fill:#e6485d}.e{fill:#405b6c}</style></defs><path class="a" d="M41.073 20.536q0-.374-.013-.745a20.537 20.537 0 00-41.046 0Q0 20.162 0 20.536c0 11.342 10.549 19.792 20.536 19.792 10.164 0 20.537-8.45 20.537-19.792z"/><path class="b" d="M20.536 39.582A20.536 20.536 0 01.015 19.791c-.009.248-.015.5-.015.745a20.536 20.536 0 0041.073 0c0-.25-.006-.5-.015-.745a20.536 20.536 0 01-20.522 19.791z"/><path d="M37.657 19.791a17.137 17.137 0 00-34.241 0c-.011.247 0 16.792 17.121 16.792s17.13-16.545 17.12-16.792z" fill="#e4eef9"/><path d="M20.537 36.182A17.136 17.136 0 013.418 19.791c-.011.247-.017.5-.017.745a17.137 17.137 0 0034.273 0c0-.25-.007-.5-.017-.745a17.136 17.136 0 01-17.12 16.391z" fill="#d5e0f2"/><path class="e" d="M26.761 14.524a1.242 1.242 0 00-1.757.012l-2.915 2.955.293 1.407 1.362.454 3.029-3.071a1.242 1.242 0 00-.012-1.757zm-7.983 3.084l-6.61-5.891a1.242 1.242 0 00-1.653 1.855l6.741 6.007 1.4-.468z"/><path d="M29.332 28.545a.619.619 0 01-.4-.146l-7.867-6.608a.621.621 0 11.8-.951l7.867 6.608a.621.621 0 01-.4 1.1z" fill="#86dcff"/><path d="M17.253 19.575l1.16 1.034 1.49-.506-.081-1.566-1.046-.932a3.426 3.426 0 00-1.523 1.97zm4.837-2.084l-.986 1v1.962h1.554l1.087-1.1a3.43 3.43 0 00-1.655-1.862z" fill="#2d4456"/><path class="a" d="M22.525 19.791a2.124 2.124 0 00-3.976 0 1.992 1.992 0 103.976 0z"/><path class="b" d="M20.537 21.168a2.123 2.123 0 01-1.988-1.377 2.123 2.123 0 103.975 0 2.123 2.123 0 01-1.987 1.377z"/><g><path class="e" d="M16.202 2.55V.622a.622.622 0 10-1.245 0v1.927a.622.622 0 101.245 0zm-1.245 26.059v1.927a.622.622 0 101.245 0v-1.927a.622.622 0 00-1.245 0zm15.58-12.407a.622.622 0 100-1.245H28.61a.622.622 0 000 1.245zM.622 14.957a.622.622 0 100 1.245h1.927a.622.622 0 000-1.245z" transform="translate(4.957 4.957)"/></g></symbol><symbol id="sprite-close-white" viewBox="0 0 24 24"><title>close-white</title><path d="M4.707 3.293L3.293 4.707 10.586 12l-7.293 7.293 1.414 1.414L12 13.414l7.293 7.293 1.414-1.414L13.414 12l7.293-7.293-1.414-1.414L12 10.586zm0 0" fill="#fff"/></symbol><symbol id="sprite-close" viewBox="0 0 18.57 18.57"><title>close</title><defs><style>.a{fill:none;stroke:#053984;stroke-linecap:round;stroke-width:3px}</style></defs><path class="a" d="M0 0l14.328 14.328m0-14.328L0 14.328" transform="translate(2.121 2.121)"/></symbol><symbol id="sprite-comments" viewBox="0 0 32 32"><title/><path d="M26 12h-2V6a3 3 0 00-3-3H6a3 3 0 00-3 3v18.41l5.12-5.12a1.05 1.05 0 01.71-.29H12v3a3 3 0 003 3h8.17a1.05 1.05 0 01.71.29L29 30.41V15a3 3 0 00-3-3zm-14 3v2H8.83a3 3 0 00-2.12.88L5 19.59V6a1 1 0 011-1h15a1 1 0 011 1v6h-7a3 3 0 00-3 3zm15 10.59l-1.71-1.71a3 3 0 00-2.12-.88H15a1 1 0 01-1-1v-7a1 1 0 011-1h11a1 1 0 011 1z"/></symbol><symbol id="sprite-cookie" viewBox="0 0 511.999 511.999"><title>cookie</title><path d="M452.426 305.315c-19.474-7.342-34.307-23.692-39.676-43.728-4.335-16.177-2.262-33.174 5.833-47.868a21.531 21.531 0 00-1.039-22.475 21.519 21.519 0 00-20.495-9.28 65.773 65.773 0 01-8.108.507c-17.252 0-33.463-6.71-45.647-18.895-14.189-14.189-20.892-33.783-18.388-53.756a21.53 21.53 0 00-31.753-21.534c-14.524 8.002-31.802 10.139-47.866 5.833-20.039-5.37-36.388-20.201-43.731-39.676-3.898-10.333-14.987-16.042-25.657-13.215-40.209 10.649-77.085 31.895-106.64 61.451-92.342 92.341-92.341 242.594 0 334.934 44.724 44.727 104.199 69.362 167.465 69.368h.022c63.249 0 122.718-24.635 167.449-69.367 29.553-29.553 50.8-66.427 61.449-106.641 2.825-10.677-2.884-21.761-13.218-25.658z" fill="#f4d8aa"/><path d="M452.426 305.315c-19.474-7.342-34.307-23.692-39.676-43.728-4.335-16.177-2.262-33.174 5.833-47.868a21.531 21.531 0 00-1.039-22.475 21.519 21.519 0 00-20.495-9.28 65.773 65.773 0 01-8.108.507c-17.252 0-33.463-6.71-45.647-18.895-14.189-14.189-20.892-33.783-18.388-53.756a21.53 21.53 0 00-31.753-21.534c-14.524 8.002-31.802 10.139-47.866 5.833-4.219-1.131-8.262-2.704-12.106-4.63v417.446c1.18.019 2.358.044 3.541.044h.022c63.249 0 122.718-24.635 167.449-69.367 29.553-29.553 50.8-66.427 61.449-106.641 2.827-10.675-2.882-21.759-13.216-25.656z" fill="#ecb45c"/><path d="M490.455 261.231c-5.657 0-11.212-2.297-15.216-6.316-4.005-4.005-6.314-9.545-6.314-15.215s2.31-11.21 6.314-15.229c4.005-4.005 9.56-6.301 15.216-6.301 5.668 0 11.223 2.297 15.228 6.301 4.005 4.005 6.316 9.56 6.316 15.229 0 5.668-2.311 11.21-6.316 15.215-4.003 4.019-9.558 6.316-15.228 6.316zM257.023 48.08c-5.668 0-11.21-2.297-15.228-6.303-4.005-4.003-6.303-9.559-6.303-15.228 0-5.67 2.298-11.212 6.303-15.215 4.005-4.006 9.56-6.316 15.228-6.316 5.67 0 11.225 2.309 15.229 6.316 4.005 4.003 6.301 9.558 6.301 15.215 0 5.668-2.297 11.225-6.301 15.228-4.019 4.006-9.559 6.303-15.229 6.303zm131.938 91.346c-5.655 0-11.21-2.298-15.216-6.301-4.005-4.005-6.314-9.559-6.314-15.229 0-5.655 2.309-11.21 6.314-15.216a21.664 21.664 0 0115.216-6.3c5.684 0 11.223 2.297 15.228 6.3 4.005 4.006 6.316 9.559 6.316 15.216 0 5.67-2.311 11.225-6.316 15.229-4.003 4.003-9.558 6.301-15.228 6.301zM276.185 309.631c-5.67 0-11.212-2.298-15.229-6.301-4.005-4.02-6.301-9.56-6.301-15.229 0-5.67 2.297-11.223 6.301-15.229 4.019-4.003 9.56-6.301 15.229-6.301s11.21 2.298 15.229 6.301c4.003 4.006 6.301 9.56 6.301 15.229 0 5.67-2.298 11.21-6.301 15.229-4.019 4.003-9.559 6.301-15.229 6.301zm-57.414-86.122c-5.67 0-11.225-2.298-15.229-6.314a21.658 21.658 0 01-6.301-15.216c0-5.67 2.297-11.223 6.301-15.229 4.005-4.003 9.56-6.301 15.229-6.301s11.21 2.297 15.229 6.301c4.003 4.006 6.301 9.56 6.301 15.229s-2.298 11.21-6.301 15.216c-4.019 4.016-9.56 6.314-15.229 6.314zM118.295 266.57c-5.67 0-11.212-2.298-15.229-6.301-4.005-4.02-6.301-9.56-6.301-15.229s2.297-11.223 6.301-15.229c4.019-4.003 9.559-6.301 15.229-6.301s11.225 2.298 15.229 6.301c4.003 4.006 6.301 9.56 6.301 15.229s-2.298 11.21-6.301 15.229c-4.004 4.003-9.559 6.301-15.229 6.301zm157.89 143.536c-5.67 0-11.212-2.298-15.229-6.301-4.005-4.02-6.301-9.56-6.301-15.229s2.297-11.223 6.301-15.229c4.005-4.003 9.56-6.301 15.229-6.301s11.225 2.297 15.229 6.301c4.003 4.006 6.301 9.559 6.301 15.229s-2.298 11.21-6.301 15.229c-4.019 4.003-9.559 6.301-15.229 6.301zM175.71 367.045c-5.67 0-11.212-2.298-15.229-6.301-4.005-4.02-6.301-9.56-6.301-15.229 0-5.67 2.297-11.223 6.301-15.229 4.019-4.003 9.559-6.301 15.229-6.301s11.21 2.298 15.229 6.301c4.003 4.006 6.301 9.56 6.301 15.229 0 5.67-2.298 11.21-6.301 15.229-4.005 4.003-9.56 6.301-15.229 6.301z" fill="#b6731b"/></symbol><symbol id="sprite-cup" viewBox="0 0 16.731 18.577"><title>cup</title><defs><style>.a{fill:#001a70}</style></defs><path class="a" d="M16.678 2.394A2.152 2.152 0 0014.107.765q-.088.02-.175.047v-.5a.31.31 0 00-.31-.31H1.238a.31.31 0 00-.31.31v.929a7.449 7.449 0 002.9 5.883H.31a.31.31 0 00-.31.31 2.17 2.17 0 002.167 2.167h10.527a2.17 2.17 0 002.167-2.167.31.31 0 00-.31-.31h-3.515a7.442 7.442 0 001.513-1.579l2.5-.577a2.152 2.152 0 001.629-2.574zm-2.907.369l.709-.142a.318.318 0 01.15.617l-1.07.306a7.372 7.372 0 00.212-.781zm.439 4.978a1.551 1.551 0 01-1.517 1.238H2.167A1.551 1.551 0 01.65 7.741zm-4.277-.619H4.927a6.83 6.83 0 01-3.379-5.883V.62h11.765v.619a6.83 6.83 0 01-3.379 5.882zm5.876-3.357a1.534 1.534 0 01-.9.6l-1.9.437q.143-.261.264-.532l1.522-.435a.937.937 0 00-.442-1.82l-.482.1c.026-.213.041-.429.047-.646l.155-.052a1.52 1.52 0 011.383.212 1.534 1.534 0 01.354 2.135z" transform="translate(0 8.979)"/><path class="a" d="M7.431 1.858a.929.929 0 01-.929-.929V0h-.619v.929a1.55 1.55 0 001.548 1.548.929.929 0 110 1.858H4.025A4.03 4.03 0 000 8.36h.619a3.41 3.41 0 013.406-3.406h3.406a1.55 1.55 0 100-3.1z" transform="translate(1.858)"/><path class="a" d="M1.084 5.883h1.393a2.322 2.322 0 100-4.644h-.155A.929.929 0 011.393.31V0H.774v.31a1.548 1.548 0 001.548 1.548h.155a1.703 1.703 0 110 3.406H1.084a1.084 1.084 0 100 2.167.929.929 0 01.929.929h.619a1.55 1.55 0 00-1.548-1.548.465.465 0 110-.929z" transform="translate(10.372)"/><path class="a" d="M.604 0l-.6.136a4.7 4.7 0 001.5 2.651l.387-.484A4.093 4.093 0 01.604 0z" transform="translate(2.332 11.388)"/><path class="a" d="M.619 0H0a5.69 5.69 0 00.05.659L.664.58A5.17 5.17 0 01.619 0z" transform="translate(2.167 10.217)"/></symbol><symbol id="sprite-diner-club" viewBox="0 0 22.69 14.25"><title>diner-club</title><g fill="#fff"><path d="M1.6.853a.719.719 0 00-.727.711v11.121a.719.719 0 00.727.715h19.49a.719.719 0 00.727-.711V1.564a.719.719 0 00-.727-.711zM1.6 0h19.49a1.582 1.582 0 011.6 1.564v11.121a1.582 1.582 0 01-1.6 1.564H1.6A1.582 1.582 0 010 12.685V1.564A1.582 1.582 0 011.6 0z"/><path d="M17.692 7.174a5.143 5.143 0 00-5.258-5.086h-2.367a4.968 4.968 0 00-5.075 5.086 5.046 5.046 0 005.074 5h2.367a5.234 5.234 0 005.259-5zm-7.613-4.66A4.616 4.616 0 115.474 7.13a4.611 4.611 0 014.607-4.616zm-2.911 4.6a2.929 2.929 0 001.874 2.73V4.388a2.93 2.93 0 00-1.872 2.73zm3.963 2.731a2.926 2.926 0 000-5.462z"/></g></symbol><symbol id="sprite-discover" viewBox="0 0 30.585 14.247"><title>discover</title><path data-name="Path 1974" d="M22.779 4.359h-2.343V.121h2.343v.718h-1.517v.941h1.463v.713h-1.463v1.144h1.517zm1.376 0h-.826V.121h1.226c.953 0 1.5.458 1.5 1.251a1.128 1.128 0 01-.966 1.2l1.334 1.785h-1.017l-1.144-1.7h-.107v1.7zm0-2.287h.24c.528 0 .809-.229.809-.655s-.279-.628-.795-.628h-.254v1.283zm-5.924 2.4L20.062.126h-.895l-1.146 2.847-1.13-2.847h-.9l1.8 4.346zm8.142-3.92h-.089V.179h.12c.091 0 .142.04.142.115a.1.1 0 01-.081.1l.121.153h-.108l-.1-.145v.145zm0-.207h.014c.044 0 .068-.016.068-.049s-.022-.048-.066-.048h-.015zm-22.5 4.018h.826V.121h-.83zm-.386-2.12a2.122 2.122 0 01-.769 1.626 2.209 2.209 0 01-1.511.491H0V.121h1.212a2.106 2.106 0 012.275 2.122zm-.851-.007a1.425 1.425 0 00-.459-1.055 1.532 1.532 0 00-1.13-.343H.826v2.8h.222a1.565 1.565 0 001.13-.337 1.451 1.451 0 00.458-1.065zm11.356 2.273a2.253 2.253 0 002.153-1.584c.013-.039.021-.078.033-.117s.017-.066.024-.1a2.185 2.185 0 00.046-.455 2.254 2.254 0 10-2.255 2.255zm-3.561-.055a2.269 2.269 0 001.037-.247v-.974a1.322 1.322 0 01-1 .465 1.385 1.385 0 01-1.422-1.462A1.409 1.409 0 0110.43.78a1.383 1.383 0 011.037.477V.285a2.107 2.107 0 00-1.017-.26A2.229 2.229 0 008.2 2.243a2.193 2.193 0 002.232 2.211zM26.1.361a.323.323 0 11.326.325.323.323 0 01-.326-.325zm.066 0a.258.258 0 10.257-.267.263.263 0 00-.261.268zm4.422 13.885V6.13s-7.945 5.606-22.5 8.116h22.5zM6.717 1.746c-.5-.183-.643-.3-.643-.533 0-.267.26-.47.617-.47a.856.856 0 01.667.344L7.79.52A1.859 1.859 0 006.544.051a1.243 1.243 0 00-1.32 1.214c0 .584.265.883 1.042 1.162a3.3 3.3 0 01.572.241.507.507 0 01.248.439.6.6 0 01-.642.6.978.978 0 01-.9-.566l-.535.515a1.647 1.647 0 001.466.808 1.367 1.367 0 001.463-1.392c-.003-.679-.282-.979-1.221-1.326z" fill="#fff"/></symbol><symbol id="sprite-exchange" viewBox="0 0 36.87 30.832"><title>exchange</title><defs><style>.a{fill:#053984}</style></defs><path class="a" d="M36.211 11.425L25.286.5a1.707 1.707 0 00-2.414 2.414l8.011 8.011H1.707a1.707 1.707 0 000 3.414H36.87s.008-2.248-.659-2.914zM.659 19.407l10.925 10.925A1.708 1.708 0 1014 27.918l-8.013-8.011h29.177a1.707 1.707 0 000-3.414H0s-.007 2.248.659 2.914z"/></symbol><symbol id="sprite-fastfood" viewBox="0 0 19.232 19.196"><title>fastfood</title><path d="M19.232 1.858V0H13.9a.928.928 0 00-.922.821L12.5 4.954H7.467v1.857h.649l.481 4.81a2.784 2.784 0 00-5.4.156L.626 6.369l-.559.266L3 12.8a2.773 2.773 0 00-1.965 3.3H.464L0 17.028l1.084 2.167h16.261l1.239-12.384h.649V4.954h-4.758l.387-3.1h4.371zm-9.071 13a2.736 2.736 0 01-1.515-.5 2.148 2.148 0 00-1.179-.43 2.021 2.021 0 00-1.16.44l-.034-.071a2.162 2.162 0 013.888.556zm-1.482-2.1c.008-.058.01-.117.014-.175l.018.183zm1.884-.065a2.781 2.781 0 001.037 2.168h-.8a2.8 2.8 0 00-1.443-1.857l-.247-2.476h2.49a2.782 2.782 0 00-1.037 2.166zm2.787-2.165a2.167 2.167 0 11-2.167 2.167 2.17 2.17 0 012.167-2.167zM6.5 15.011a1.664 1.664 0 01.972-.459 1.6 1.6 0 01.855.33 3.317 3.317 0 001.932.6 2.168 2.168 0 01-.09.619h-3.7a2.659 2.659 0 00.031-1.09zm-.576-4.794a2.17 2.17 0 012.075 1.544 2.736 2.736 0 01-1.515-.5 2.148 2.148 0 00-1.184-.425 2.189 2.189 0 00-1.3.539 2.169 2.169 0 011.919-1.158zM5.3 11.456a1.6 1.6 0 01.855.33 3.317 3.317 0 001.932.6 2.219 2.219 0 01-.024.311 2.8 2.8 0 00-2.143 1.037 2.781 2.781 0 00-2.144-1.038c-.01-.07-.015-.14-.018-.211.287-.352.961-1.029 1.542-1.029zm-1.548 1.857a2.17 2.17 0 012.075 1.545 2.736 2.736 0 01-1.515-.5 2.148 2.148 0 00-1.179-.43 2.189 2.189 0 00-1.3.539 2.169 2.169 0 011.919-1.154zm-.619 1.238a1.6 1.6 0 01.855.33 3.317 3.317 0 001.932.6 2.168 2.168 0 01-.09.619H1.674a2.143 2.143 0 01-.085-.518c.287-.354.962-1.03 1.544-1.03zm6.5 2.786v.619h1.047l-.31.619H1.466l-.31-.619h7.859v-.618H.847l-.155-.31.155-.31h10.144l.155.31-.155.31zm7.15 1.238h-5.719l.774-1.548-.464-.929H10.8a2.778 2.778 0 00.072-.619h6.222zm.372-3.715H15.1a2.78 2.78 0 000-4.332h2.49zm1.457-9.288v.619h-1.237v.619h.587l-.31 3.1h-8.6l-.31-3.1h8.017v-.618H8.086v-.619h10.527zm-4.3-4.335l-.462 3.717h-.73l.474-4.061a.31.31 0 01.307-.274h4.712v.619z" fill="#001a70"/></symbol><symbol id="sprite-flight" viewBox="0 0 21.267 19.96"><title>flight</title><g fill-rule="evenodd"><path d="M13.2 21.253l-1.918-2.215.222-6.591 7.948 2.008a.388.388 0 00.353-.076.416.416 0 00.159-.332v-1.663a.416.416 0 00-.187-.353l-8-4.936.2-4.285a3.462 3.462 0 00-.9-2.278A1.426 1.426 0 009.069.317a1.26 1.26 0 00-.215.215 3.5 3.5 0 00-.872 2.278L8.2 7.1l-8 4.936a.443.443 0 00-.2.353v1.662a.443.443 0 00.166.332.422.422 0 00.353.076l7.989-2.008.256 6.508-1.848 2.308z" fill="#053984" transform="rotate(90 10.633 10.634)"/><path d="M13.195 21.255l-1.917-2.217-2.514-.083-1.848 2.312z" fill="#f8421c" transform="rotate(90 10.633 10.634)"/></g></symbol><symbol id="sprite-food" viewBox="0 0 19.815 15.127"><title>food</title><defs><style>.a{fill:#001a70}</style></defs><path class="a" d="M18.816 3.559a1.879 1.879 0 01-.746-1.812h.593V0h-2.384v.582h1.8v.584h-2.92V.582h.541V0h-1.12v1.747h.593c.145 2.195-1.665 1.5-1.753 3.713v2.7h-.876a1.924 1.924 0 00-2.789-.886 1.912 1.912 0 00-3.46.757 2.356 2.356 0 00-1.873.428V5.814h-.584v1.054c-.606-.619-1.564-.447-2.348-.467a7.1 7.1 0 00.1 1.73A2.311 2.311 0 00.11 11.11l.57-.116a1.812 1.812 0 013.2-1.631l.244.378a1.847 1.847 0 012.184-1.115c.1.523.406 1.054.133 1.574a1.478 1.478 0 00-2.368 1.435h-.568v.654l1.178 2.118-.554-.139c-.733.178-1.508.491-2.206.017-.883-.6-.743-1.27-1.122-2.715l-.568.123c.429 1.623.227 2.257 1.381 3.084a2.824 2.824 0 002.514.09l1.108.257H12.8v-.582H5.423L4.13 12.219h12.708l-1.293 2.326h-1.01v.581h5.28V5.457a2.3 2.3 0 00-1-1.9zM2.157 8.001a2.961 2.961 0 01-.086-1.018h.579a1.149 1.149 0 011.188 1.166v.313a2.3 2.3 0 00-1.681-.461zm12.592-3.962a2.437 2.437 0 001-2.292h1.736a2.44 2.44 0 001 2.292 1.72 1.72 0 01.746 1.418v7.925h-2.374l.32-.576h1.486v-7.57h-4.086v3.082A1.98 1.98 0 0014 8.169v-2.71a1.72 1.72 0 01.75-1.421zm-3.8 6.141a1.449 1.449 0 011.383-1.439h1.512a1.449 1.449 0 011.383 1.439 1.471 1.471 0 011.054 1.458H9.9a1.531 1.531 0 011.054-1.458zm5.711.508a2 2 0 00-.9-.913 2 2 0 00-.6-1.081V5.817h2.922v6.409h-.618v-.587h-.6a2.012 2.012 0 00-.2-.95zm-6.1-3.11a1.33 1.33 0 011.359.635 2.013 2.013 0 00-1.5 1.562 1.994 1.994 0 00-.53.388c-.353-.742.387-1.425.106-2.351a1.266 1.266 0 01.569-.234zm-3.5 1.628a2.41 2.41 0 01-.177-1.18 1.329 1.329 0 012.461-.3c.395.7-.269 1.524-.119 2.243a1.925 1.925 0 00.292.724 2.011 2.011 0 00-.2.945h-.86V8.176h-.582v3.462H6.43c.023-.892.97-1.082.637-2.432zm-2.405 2.127a.876.876 0 011.472-.633 1.767 1.767 0 00-.278.938H4.655zm14.579 3.212H16.21l.323-.581h2.7v.581z"/><path class="a" d="M15.452 4.069h.581v.581h-.581zm-2.07 10.476h.571v.581h-.571zm-1.755-4.054h.581v.581h-.581zm1.174-.891h.581v.581h-.581zm1.152.891h.582v.581h-.582zm-8.141 2.3h.581v.581h-.581zm1.163 0h.581v.581h-.581zM1.193 9.885h.579v.581h-.581z"/></symbol><symbol id="sprite-forbidden" viewBox="0 0 15.749 15.748"><title>forbidden</title><defs><style>.a{fill:#fff}</style></defs><path class="a" d="M7.874 13.788a5.887 5.887 0 01-3.431-1.1L7.876 9.26l.308-1.385-.308-1.387-4.818 4.819A5.915 5.915 0 017.874 1.96L8.183.893 7.876 0a7.874 7.874 0 000 15.748l.308-1.016-.308-.944z"/><path class="a" d="M15.749 7.874A7.874 7.874 0 007.876 0v1.96a5.887 5.887 0 013.431 1.1L7.876 6.491V9.26l4.817-4.817a5.915 5.915 0 01-4.817 9.345v1.96a7.874 7.874 0 007.873-7.874z"/></symbol><symbol id="sprite-gift-card" viewBox="0 0 22.417 23.218"><title>gift-card</title><defs><style>.a{fill:#fff}</style></defs><path class="a" d="M3.603 6.005h6v7.606h-6zM2.401 17.614h2a.4.4 0 000-.8h-2a.4.4 0 100 .8zm8.007-11.609h1.6v7.606h-1.6zm2.402 0h6v7.606h-6zM7.605 17.614h2a.4.4 0 000-.8h-2a.4.4 0 100 .8zm10.408 0h2a.4.4 0 000-.8h-2a.4.4 0 000 .8zm-5.204 0h2a.4.4 0 000-.8h-2a.4.4 0 000 .8z"/><path class="a" d="M1.201 23.218h20.015a1.2 1.2 0 001.2-1.2V8.404a1.2 1.2 0 00-1.2-1.2h-1.6v6.4h1.2a.4.4 0 110 .8H1.601a.4.4 0 110-.8h1.2v-6.4h-1.6a1.2 1.2 0 00-1.2 1.2v13.61a1.2 1.2 0 001.2 1.2zm16.813-7.206h2a1.2 1.2 0 110 2.4h-2a1.2 1.2 0 110-2.4zm-5.2 0h2a1.2 1.2 0 110 2.4h-2a1.2 1.2 0 110-2.4zm-5.2 0h2a1.2 1.2 0 110 2.4h-2a1.2 1.2 0 110-2.4zm-5.2 0h2a1.2 1.2 0 110 2.4h-2a1.2 1.2 0 110-2.4zm-.8 3.6H8.82a.4.4 0 010 .8H1.601a.4.4 0 010-.8zm0 1.6h4a.4.4 0 110 .8h-4a.4.4 0 110-.8zM3.202 5.201h6v-1.6h.8v1.6h2.4v-1.6h.8v1.6h6a.4.4 0 00.4-.4v-.8a.4.4 0 00-.4-.4h-5.4a1.8 1.8 0 001.793-1.981A1.856 1.856 0 0013.73.001h-1.12a1.792 1.792 0 00-1.4.683A1.792 1.792 0 009.807.001H8.686a1.856 1.856 0 00-1.873 1.622 1.8 1.8 0 001.793 1.978h-5.4a.4.4 0 00-.4.4v.8a.4.4 0 00.396.4zm8.407-3.4a1 1 0 011-1h1.2a1 1 0 010 2h-2.2zm-4 0a1 1 0 011-1h1.2a1 1 0 011 1v1h-2.2a1 1 0 01-1.003-1z"/></symbol><symbol id="sprite-home" viewBox="0 0 59.465 59.465"><title>home</title><path d="M58.862 33.886L45.045 20.069v-9.112a2.056 2.056 0 10-4.113 0v5.001L31.185 6.21a2.053 2.053 0 00-2.905 0L.603 33.886a2.055 2.055 0 102.907 2.907L29.732 10.57l26.223 26.223a2.047 2.047 0 002.907 0 2.055 2.055 0 000-2.907z"/><path d="M52.979 36.245L31.185 14.449a2.056 2.056 0 00-2.907 0L6.484 36.245a2.038 2.038 0 00-.565 1.062 4.967 4.967 0 00-.091.942v10.638a4.977 4.977 0 004.969 4.971h10.638a4.974 4.974 0 003.645-1.599 4.952 4.952 0 001.324-3.373v-7.812a3.683 3.683 0 013.33-3.658 3.683 3.683 0 013.331 3.658v7.812c0 1.252.472 2.45 1.324 3.373a4.977 4.977 0 003.646 1.599h10.638a4.977 4.977 0 004.971-4.972V38.252c0-.312-.031-.63-.092-.941a2.061 2.061 0 00-.573-1.066z"/></symbol><symbol id="sprite-large-tick" viewBox="0 0 22.102 22.102"><title>large-tick</title><g data-name="Group 4558"><path data-name="Path 3918" d="M11.051 0A11.051 11.051 0 110 11.051 11.051 11.051 0 0111.051 0z" fill="#008b45"/></g><path data-name="Path 3899" d="M5.984 10.767l3.57 3.57 6.564-6.57" fill="none" stroke="#fff" stroke-linecap="round" stroke-width="2"/></symbol><symbol id="sprite-location" viewBox="0 0 14.03 14.03"><title>location</title><defs><style>.a{fill:#575757}</style></defs><path class="a" d="M7.015 0a7.015 7.015 0 107.015 7.015A7.023 7.023 0 007.015 0zm0 11.707a4.692 4.692 0 114.684-4.692 4.7 4.7 0 01-4.684 4.692z"/><path class="a" d="M7.003 4.665a2.4 2.4 0 102.4 2.4 2.4 2.4 0 00-2.4-2.4zm0 4a1.6 1.6 0 111.6-1.6 1.6 1.6 0 01-1.6 1.6z"/></symbol><symbol id="sprite-map-marker" viewBox="0 0 22.011 31.305"><title>map-marker</title><defs><style>.a{fill:#575757}</style></defs><path class="a" d="M11.003 5.503a5.5 5.5 0 105.5 5.5 5.509 5.509 0 00-5.5-5.5zm0 9.184a3.681 3.681 0 113.675-3.681 3.684 3.684 0 01-3.675 3.681z"/><path class="a" d="M11.006 0a11.008 11.008 0 00-9.363 16.793l8.736 14.079a.917.917 0 00.779.434h.007a.917.917 0 00.78-.446l8.514-14.215A11.008 11.008 0 0011.006 0zm7.879 15.7l-7.74 12.924L3.2 15.827a9.178 9.178 0 1115.685-.127z"/></symbol><symbol id="sprite-mastercard" viewBox="0 0 24 14.831"><title>mastercard</title><path d="M11.343 13.447c.058.049.12.1.181.146a7.416 7.416 0 110-12.355 1.531 1.531 0 00-.165.15 7.976 7.976 0 00-.013 12.059zM16.584 0a7.378 7.378 0 00-4.1 1.238 1.531 1.531 0 01.165.15 7.976 7.976 0 01.013 12.059c-.058.049-.12.1-.181.146A7.417 7.417 0 1016.584 0zM12 1.59c-.1.075-.189.15-.28.231a7.411 7.411 0 000 11.19c.09.08.185.158.28.232.1-.074.189-.152.28-.232a7.411 7.411 0 000-11.19A5.724 5.724 0 0012 1.59z" fill="#fff"/></symbol><symbol id="sprite-menu" viewBox="0 0 25 19"><title>menu</title><defs><style>.a{fill:none;stroke:#053984;stroke-linecap:round;stroke-width:4px}</style></defs><path class="a" d="M0 0h21M6.035 7.305h14.661M0 15h21" transform="translate(2 2)"/></symbol><symbol id="sprite-no-flight" viewBox="0 0 33.5 33.5"><title>no-flight</title><path d="M19.652 26.579l-3.526 5.2a3.937 3.937 0 01-3.132 1.719l-4.293.002a1.309 1.309 0 010-2.617h.925l2.375-9.683H7.136l-2.327 2.45-.022.023a4.267 4.267 0 01-3.51 1.649 1.309 1.309 0 01-1.188-1.785l2.646-6.787L.089 9.963a1.309 1.309 0 011.187-1.784 4.263 4.263 0 013.51 1.649l.022.023 2.714 2.857a1.309 1.309 0 01-1.9 1.8l-1.618-1.7 1.352 3.468a1.309 1.309 0 010 .951l-1.349 3.466 1.618-1.7a1.309 1.309 0 01.949-.407h7.1a1.309 1.309 0 011.271 1.614l-2.624 10.679h.61a1.313 1.313 0 001.029-.572l3.526-5.2a1.309 1.309 0 012.166 1.469zm13.465 6.537a1.309 1.309 0 01-1.851 0L.383 2.234A1.309 1.309 0 012.234.383l9.072 9.072-1.681-6.837h-.924a1.309 1.309 0 010-2.618l4.29.005a3.936 3.936 0 013.132 1.718L23.456 12.5h3.281a10.376 10.376 0 013.958.95c2.318 1.066 2.805 2.385 2.805 3.3s-.487 2.238-2.805 3.3a10.376 10.376 0 01-3.958.95h-3.3l-.235.347 9.916 9.916a1.309 1.309 0 01-.002 1.854zM14.88 13.029l6.436 6.436.343-.506a1.309 1.309 0 011.083-.574h3.995a7.65 7.65 0 002.688-.632c1.062-.453 1.4-.881 1.453-1-.052-.122-.391-.55-1.453-1a7.651 7.651 0 00-2.688-.632h-3.995a1.308 1.308 0 01-1.184-.754L13.961 3.195a1.313 1.313 0 00-1.029-.573h-.61z" fill="#f76f52"/></symbol><symbol id="sprite-no-touch" viewBox="0 0 17.875 17.879"><title>no-touch</title><defs><style>.a{fill:#fff}</style></defs><path class="a" d="M8.939 17.877a8.965 8.965 0 116.313-2.627 8.87 8.87 0 01-6.313 2.627zm0-16.2a7.244 7.244 0 105.14 2.121 7.215 7.215 0 00-5.14-2.12z" transform="translate(-.001 .002)"/><path class="a" d="M13.131 10.055a17.792 17.792 0 01-2.681 2.737V14.3H6.201v-1.229a2.913 2.913 0 01-.67-1.732V5.977a.573.573 0 01.559-.559.56.56 0 01.559.559v2.235a.148.148 0 00.168.168.178.178 0 00.168-.168V5.028a.573.573 0 01.559-.559.56.56 0 01.559.559v3.184a.148.148 0 00.168.168.178.178 0 00.168-.168V4.188a.507.507 0 01.168-.391.6.6 0 01.391-.168.56.56 0 01.559.559v3.966a.148.148 0 00.168.168.178.178 0 00.168-.168V4.972a.507.507 0 01.168-.391.6.6 0 01.391-.168.612.612 0 01.614.559v4.916l.838-.894a.648.648 0 01.559-.223.607.607 0 01.5.223.7.7 0 01.168 1.061z" transform="translate(-.001 .002)"/><path class="a" d="M3.631 15.418l-1.173-1.173L14.245 2.458l1.173 1.173z" transform="translate(-.001 .002)"/></symbol><symbol id="sprite-noresult" viewBox="0 0 147 137.01"><title>noresult</title><path d="M135.69-.04H83.95a11.33 11.33 0 00-11.31 11.36v3.5h-25a11.32 11.32 0 00-11.32 11.31v2.32h-25A11.32 11.32 0 000 39.76v85.94a11.32 11.32 0 0011.31 11.31h51.74a11.32 11.32 0 0011.31-11.31v-2.32h25a11.32 11.32 0 0011.31-11.31v-3.5h25A11.32 11.32 0 00147 97.26V11.32A11.33 11.33 0 00135.69-.04zM69.36 125.7a6.32 6.32 0 01-6.31 6.31H11.31A6.32 6.32 0 015 125.7V39.76a6.32 6.32 0 016.31-6.31h25v33h-14.9a2.5 2.5 0 000 5h14.91v6.08H21.41a2.5 2.5 0 000 5h14.91v6.68H21.41a2.5 2.5 0 000 5h14.91v6.67H21.41a2.5 2.5 0 000 5h14.91v6.68H21.41a2.5 2.5 0 000 5h16.34a11.31 11.31 0 009.88 5.81h21.73zm36.32-17.13v3.5a6.32 6.32 0 01-6.31 6.31H47.63a6.32 6.32 0 01-6.31-6.31V26.13a6.32 6.32 0 016.31-6.31h51.74a6.32 6.32 0 016.31 6.31v77.44zM142 97.26a6.32 6.32 0 01-6.31 6.31h-25V88.88h14.91a2.5 2.5 0 000-5h-14.92V77.2h14.92a2.5 2.5 0 000-5h-14.92v-6.67h14.92a2.5 2.5 0 000-5h-14.92v-6.68h14.92a2.5 2.5 0 000-5h-14.92v-6.08h14.92a2.5 2.5 0 000-5h-14.92V26.13a11.32 11.32 0 00-11.31-11.31H77.64v-3.5a6.32 6.32 0 016.31-6.36h51.74a6.32 6.32 0 016.31 6.32z"/><path d="M64.65 70.04a2.51 2.51 0 001.85-4.22l-3.68-3.86 3.89-3.65a2.5 2.5 0 10-3.42-3.64l-3.89 3.62-3.65-3.88a2.5 2.5 0 10-3.64 3.42l3.65 3.88-3.89 3.65a2.5 2.5 0 103.42 3.65l3.89-3.65 3.65 3.89a2.49 2.49 0 001.82.79zm30.59-15.28a2.49 2.49 0 00-3.53-.11l-3.89 3.64-3.65-3.88a2.508 2.508 0 10-3.67 3.42l3.65 3.88-3.89 3.65a2.5 2.5 0 103.42 3.65l3.89-3.65 3.65 3.89a2.5 2.5 0 103.64-3.43l-3.62-3.86 3.89-3.65a2.49 2.49 0 00.11-3.55zM73.5 76.03c-7.69 0-13.3 6.07-13.54 6.32a2.502 2.502 0 003.69 3.38s4.4-4.7 9.85-4.7c3.11 0 6.11 1.59 8.9 4.68a2.51 2.51 0 001.86.83 2.47 2.47 0 001.68-.65 2.5 2.5 0 00.17-3.53c-3.81-4.19-8.06-6.32-12.61-6.33z"/></symbol><symbol id="sprite-officer" viewBox="0 0 81.874 86.026"><title>officer</title><defs><style>.a{fill:#053984}</style></defs><path class="a" d="M41.988 85.158a.868.868 0 00.868.868h3.54v-4.933h-4.408zm19.034.868h3.54a.868.868 0 00.868-.868v-4.065h-4.408z"/><circle class="a" cx="7.246" cy="7.246" transform="translate(13.028 3.533)" r="7.246"/><path class="a" d="M1.736 49.286a1.752 1.752 0 001.687-1.317L8.17 29.091a1.3 1.3 0 012.565.317v53.665a2.955 2.955 0 002.952 2.952h.095a2.955 2.955 0 002.952-2.952V55.717a3.147 3.147 0 116.294 0v27.357a2.952 2.952 0 105.9 0v-56.7a1.3 1.3 0 011.3-1.3h13.1l11.971-3.646.048-.014a2.339 2.339 0 001.7-2.58 2.389 2.389 0 00-1.127-1.718 2.322 2.322 0 00-2-.241l-.026.009-10.369 3.285H12.848a8.2 8.2 0 00-7.947 6.32L.059 47.181A1.644 1.644 0 00.35 48.63a1.738 1.738 0 001.386.656z"/><path class="a" d="M47.974 38.589h2.054v10.268h-2.054zm9.417 0h2.057v10.268h-2.054zm2.053-6.987a1.028 1.028 0 00-1.027-1.027h-9.416a1.028 1.028 0 00-1.027 1.027v5.034h2.054v-2.229a1.78 1.78 0 011.778-1.778h3.81a1.78 1.78 0 011.778 1.778v2.229h2.054zm5.985 20.402a.868.868 0 00-.868-.868h-21.7a.868.868 0 00-.868.868v26.484h4.408V67.583a3.31 3.31 0 013.306-3.306h8.014a3.31 3.31 0 013.306 3.306v10.909h4.408zm-2.7 7.146H44.693a1.3 1.3 0 110-2.6h18.032a1.3 1.3 0 110 2.6z"/><path class="a" d="M49.702 66.878a.7.7 0 00-.7.7v18.447h9.416V67.579a.7.7 0 00-.7-.7zM70.124 23.5a11.751 11.751 0 10-11.751-11.749A11.751 11.751 0 0070.124 23.5zm-6.969-12.7h8.575V7.465a.953.953 0 011.626-.674l4.492 4.491a.953.953 0 010 1.347l-4.491 4.491a.953.953 0 01-1.626-.674V12.7h-8.575a.953.953 0 010-1.906z"/><path class="a" d="M73.509 9.767v4.382l2.191-2.191z"/></symbol><symbol id="sprite-open" viewBox="0 0 15 15"><title>open</title><g transform="translate(-363.645 -55)"><circle cx="7.5" cy="7.5" r="7.5" transform="translate(363.645 55)" fill="#fff"/><path d="M366.369 62.536l2.965 2.965 5.454-5.454" fill="none" stroke="#008b45"/></g></symbol><symbol id="sprite-seat" viewBox="0 0 21.779 25.853"><title>seat</title><defs><style>.a{fill:#fff}</style></defs><path class="a" d="M5.294 13.427v3.327h11.191v-3.327a1.968 1.968 0 011.966-1.966h.3v-8.89a2.575 2.575 0 00-2.117-2.53v9.336a1.968 1.968 0 01-1.966 1.966H7.106A1.968 1.968 0 015.14 9.377V.041a2.575 2.575 0 00-2.115 2.53v8.889h.3a1.968 1.968 0 011.969 1.967z"/><path class="a" d="M7.109 10.436h7.562a1.06 1.06 0 001.059-1.059V0H6.05v9.377a1.06 1.06 0 001.059 1.059zm5.968-2.62a.579.579 0 11-.579.579.579.579 0 01.578-.58zm-2.187 0a.579.579 0 11-.579.579.579.579 0 01.579-.58zm-2.187 0a.579.579 0 11-.579.579.579.579 0 01.579-.58zm-3.41 9.845h11.192v2.117H5.293z"/><path class="a" d="M1.059 25.853H20.72a1.06 1.06 0 001.059-1.059V13.427a1.06 1.06 0 00-1.059-1.059h-2.269a1.06 1.06 0 00-1.059 1.059v6.806a.454.454 0 01-.454.454h-12.1a.454.454 0 01-.454-.454v-6.806a1.06 1.06 0 00-1.057-1.059H1.058A1.06 1.06 0 000 13.427v11.368a1.06 1.06 0 001.059 1.058zm6.806-3.072h6.05a.454.454 0 110 .907h-6.05a.454.454 0 110-.907z"/></symbol><symbol id="sprite-suitcase-travel-bag" viewBox="0 0 17.666 29.322"><title>suitcase-travel-bag</title><g transform="translate(.5 .5)" stroke="#021a70" stroke-linecap="round" stroke-linejoin="round"><path data-name="Path 3923" d="M4.946 2.919h6.775L11.031 0h-5.4z" fill="none"/><path data-name="Path 3924" d="M16.665 11.021v12.631a2.971 2.971 0 01-2.975 2.971H2.971A2.971 2.971 0 010 23.652V11.021a15.3 15.3 0 0016.665 0z" fill="#fff"/><path data-name="Path 3925" d="M16.666 5.91v5.111a15.3 15.3 0 01-16.666 0V5.91a2.991 2.991 0 012.991-2.991h10.683a2.991 2.991 0 012.992 2.991z" fill="#fff"/><path data-name="Line 112" fill="none" d="M8.333 13.488v5.211"/><circle data-name="Ellipse 51" cx="1.616" cy="1.616" r="1.616" transform="translate(6.718 18.7)" fill="#fff"/><g data-name="Group 4618" fill="none"><path data-name="Line 113" d="M0 0v1.699" transform="translate(3.641 26.623)"/><path data-name="Line 114" d="M9.385 0v1.699" transform="translate(3.641 26.623)"/></g></g></symbol><symbol id="sprite-tick" viewBox="0 0 24 20"><title>tick</title><defs><clipPath id="a"><path d="M0 0h24v20H0z"/></clipPath></defs><g data-name="iPad – 21" clip-path="url(#a)"><g data-name="Group 312" transform="translate(-77 -296)"><circle data-name="Ellipse 6" cx="9" cy="9" r="9" transform="translate(80 297)" fill="#3daf22"/><path data-name="Path 112" d="M84.922 305.308l3.176 3.176 5.28-5.28" fill="none" stroke="#fff" stroke-width="2"/></g></g></symbol><symbol id="sprite-time" viewBox="0 0 15.884 15.884"><title>time</title><defs><style>.a{fill:#001a70}</style></defs><path class="a" d="M1.8 3.57a.416.416 0 00-.574.129A7.942 7.942 0 103.712 1.22a.416.416 0 10.444.7 7.113 7.113 0 11-1.242 11.051 7.158 7.158 0 01-.985-8.829.416.416 0 00-.129-.572z"/><path class="a" d="M13.351 8.366h.513a.416.416 0 100-.832h-.513a.416.416 0 100 .832zM1.608 7.937a.416.416 0 00.416.416h.513a.416.416 0 100-.832h-.513a.416.416 0 00-.416.416zm6.758-5.4v-.513a.416.416 0 10-.832 0v.513a.416.416 0 10.832 0zm-.845 10.814v.513a.416.416 0 10.832 0v-.513a.416.416 0 10-.832 0zM5.859 5.27a.416.416 0 00-.588.588l1.41 1.41a1.433 1.433 0 102.527 0l2.844-2.844a.416.416 0 00-.588-.588L8.62 6.68a1.43 1.43 0 00-1.35 0zm2.686 2.673a.6.6 0 11-.6-.6.6.6 0 01.6.6zM2.914 2.914a.416.416 0 10-.294.122.418.418 0 00.294-.122z"/></symbol><symbol id="sprite-travel" viewBox="0 0 96.06 96.06"><title>travel</title><defs><style>.a{fill:#053984}</style></defs><path class="a" d="M48.844 92.803H16.281a1.629 1.629 0 00-1.628 1.628v1.628h35.819v-1.628a1.629 1.629 0 00-1.628-1.628zm-19.647-9.768a13.257 13.257 0 01-2.659 6.513h12.045a13.273 13.273 0 01-2.659-6.513zM63.5 40.703H50.472v27.678a4.89 4.89 0 01-4.884 4.884h-26.05a4.89 4.89 0 01-4.884-4.884V40.703H1.628A1.63 1.63 0 000 42.331V78.15a1.629 1.629 0 001.628 1.628H63.5a1.629 1.629 0 001.628-1.628V42.331a1.63 1.63 0 00-1.628-1.628zm-4.887 14.653h3.256v3.256h-3.256zm-6.513 0h3.256v3.256H52.1zm11.242 18.6a1.627 1.627 0 01-1.473.938h-4.21l-2.78 2.779a1.629 1.629 0 01-1.151.477 1.608 1.608 0 01-.624-.124 1.627 1.627 0 01-1-1.5V63.497a1.628 1.628 0 012.879-1.042l8.141 9.769a1.624 1.624 0 01.218 1.732z"/><path class="a" d="M19.537 70.01h26.05a1.629 1.629 0 001.628-1.628V22.794a1.63 1.63 0 00-1.628-1.628h-26.05a1.63 1.63 0 00-1.628 1.628v45.588a1.629 1.629 0 001.628 1.628zm17.909-3.256H34.19v-3.257h3.256zm0-6.513H34.19V43.96h3.256zm0-19.538H34.19v-3.256h3.256zm6.513 0h-3.256v-3.256h3.256zm-11.4-16.281a1.628 1.628 0 011.628-1.628h9.772a1.628 1.628 0 011.628 1.628v9.769a1.628 1.628 0 01-1.628 1.628H34.19a1.628 1.628 0 01-1.628-1.628zm-4.881 13.025h3.256v3.256h-3.256zm0 6.513h3.256v16.281h-3.256zm0 19.538h3.256v3.256h-3.256zm-6.513-26.05h3.256v3.256h-3.256zm0 6.513h3.256v16.28h-3.256zm0 19.538h3.256v3.256h-3.256z"/><path class="a" d="M35.819 26.05h6.513v6.513h-6.513zm19.537 46.542l.477-.477a1.621 1.621 0 011.151-.477h1.408l-3.036-3.644zM78.15 35.819h3.256v3.256H78.15zm0 6.512h3.256v3.256H78.15zm0 6.513h3.256V52.1H78.15zm0 6.512h3.256v3.256H78.15zm-6.512 0h3.256v3.256h-3.256zm24.422-34.19v-3.257l-13.025-3.256V3.256a3.256 3.256 0 00-6.513 0v11.4l-13.025 3.253v3.256h13.025v3.256l-4.884 4.884v3.256l8.141-3.256 8.141 3.256v-3.255l-4.884-4.884v-3.256z"/></symbol><symbol id="sprite-user" viewBox="0 0 20.008 16.192"><title>user</title><g data-name="Group 4675"><g data-name="Group 4673"><path data-name="Path 3927" d="M9.335 10.783a20.442 20.442 0 00-3.657-2.348.112.112 0 01-.062-.1V5.853a1.155 1.155 0 00.518-.966v-2.57A2.318 2.318 0 003.816 0h-.553A2.318 2.318 0 00.946 2.317v2.57a1.166 1.166 0 00.518.966v2.481a.108.108 0 01-.062.1c-.179.086-.713.354-1.4.771v.339a21.237 21.237 0 013.4 2.235 2.136 2.136 0 01.779 1.655v.074h5.616v-1.76a1.253 1.253 0 00-.462-.965z" fill="none" stroke="#707070" transform="translate(9.718 .5)"/></g><g data-name="Group 4674"><path data-name="Path 3928" d="M12.041 10.783a20.443 20.443 0 00-3.657-2.348.112.112 0 01-.062-.1V5.853a1.155 1.155 0 00.518-.966v-2.57A2.318 2.318 0 006.523 0H5.97a2.318 2.318 0 00-2.317 2.317v2.57a1.166 1.166 0 00.518.966v2.481a.108.108 0 01-.062.1 20.16 20.16 0 00-3.657 2.348 1.246 1.246 0 00-.452.962v1.76h12.5v-1.76a1.28 1.28 0 00-.459-.961z" fill="none" stroke="#707070" transform="translate(.5 2.186)"/></g></g></symbol><symbol id="sprite-visa" viewBox="0 0 24 16.8"><title>visa</title><g data-name="Group 3229" fill="#fff"><path data-name="Path 1968" d="M22.626 0H1.374A1.375 1.375 0 000 1.374v14.052A1.375 1.375 0 001.374 16.8h21.252A1.375 1.375 0 0024 15.426V1.369A1.375 1.375 0 0022.626 0zm-.036 15.389l-21.18.036-.036-14.017 21.216-.039z"/><path data-name="Path 1969" d="M3.41 6.458l.712 5.1h1.749l3.261-6.316H7.294L5.91 8.171c-.2.416-.366.792-.512 1.137a41.37 41.37 0 00-.092-1.066l-.28-3h-2.8l2.907 2.3z"/><path data-name="Path 1970" d="M10.388 11.563l1.2-6.319h-1.65l-1.2 6.319z"/><path data-name="Path 1971" d="M11.349 11.189a3.187 3.187 0 001.814.461c1.556 0 2.6-.88 2.6-2.187a1.959 1.959 0 00-1.275-1.731c-.48-.27-.772-.45-.772-.678s.224-.443.754-.443a2.187 2.187 0 01.986.243l.187.1.526-1.407-.138-.077a3.039 3.039 0 00-1.494-.323 2.249 2.249 0 00-2.526 2.12 2.07 2.07 0 001.338 1.743c.586.305.7.478.7.675 0 .379-.409.514-.76.514a2.61 2.61 0 01-1.309-.358l-.185-.11-.557 1.371z"/><path data-name="Path 1972" d="M17.355 11.563l.708-1.545h1.425l.124 1.545h1.709l-.74-6.319h-1.918l-3.07 6.319zm1.718-3.9c.065-.142.132-.305.2-.472l.031.412.1 1.08h-.8z"/></g></symbol></svg>